<?xml version="1.0" standalone="no"?><!DOCTYPE svg PUBLIC "-//W3C//DTD SVG 1.1//EN" "http://www.w3.org/Graphics/SVG/1.1/DTD/svg11.dtd"><svg t="1541729410449" class="icon" style="" viewBox="0 0 1137 1024" version="1.1" xmlns="http://www.w3.org/2000/svg" p-id="5428" xmlns:xlink="http://www.w3.org/1999/xlink" width="222.0703125" height="200"><defs><style type="text/css"></style></defs><path d="M972.629333 486.115556c1.024 40.96-15.928889 75.946667-50.460444 102.968888l-28.046222-35.84c29.980444-23.438222 39.424-53.077333 28.956444-93.127111-119.694222-125.952-188.757333-198.144-206.677333-215.950222-9.955556-9.898667-32.426667-10.24-69.290667 3.584L507.164444 375.466667l39.480889 226.531555c37.205333-2.730667 59.562667-6.542222 62.122667-9.045333 10.581333-10.183111 17.749333-40.96 10.24-54.727111-17.294222-31.857778-4.039111-112.071111 16.042667-139.548445 12.743111-17.464889 32.312889-26.112 56.32-26.112h9.671111l228.522666 238.819556 5.006223 8.192c11.946667 33.848889-0.341333 63.715556-32.768 83.399111-12.458667 7.623111-25.031111 12.174222-37.546667 13.425778 4.437333 23.438222-1.592889 43.576889-19.797333 58.368a83.740444 83.740444 0 0 1-48.583111 18.659555c-0.967111 28.672-17.351111 50.688-47.786667 62.293334-37.831111 14.392889-72.704 6.712889-100.124445-22.186667l-46.478222-48.753778 32.938667-31.402666 46.478222 48.753777c14.791111 15.530667 30.264889 18.944 50.972445 11.093334 15.530667-5.916444 20.878222-13.994667 17.92-30.151111a81.123556 81.123556 0 0 1-12.344889-8.305778c-13.141333-10.695111-33.336889-29.013333-60.757334-55.182222l31.402667-32.938667c26.624 25.372444 46.08 43.064889 58.083556 52.906667 13.312 10.808889 34.986667 11.832889 49.493333-0.056889 6.769778-5.461333 6.769778-15.928889-5.461333-38.001778l0.398222-0.284445a113.265778 113.265778 0 0 1-2.275556-1.592888l-56.604444-56.775112 32.199111-32.142222 53.76 54.328889c12.401778 8.874667 24.405333 8.874667 40.448-0.910222 13.084444-7.964444 17.066667-14.961778 14.791111-25.258667l-210.488889-219.932444a17.066667 17.066667 0 0 0-10.695111 6.656c-10.467556 14.336-20.707556 76.231111-12.743111 90.908444 17.976889 33.166222 5.745778 85.674667-18.602667 109.226667-15.758222 15.246222-57.059556 21.276444-136.248889 24.120889l-1.251555-33.564445-44.828445-257.592889 161.564445-147.456 6.997333-4.380444c29.525333-11.548444 55.182222-16.782222 76.8-14.904889l-3.413333-3.413333 125.383111-124.472889 283.022222 275.171555-133.575111 148.878223-2.275556-1.991111z m-11.377777-50.972445l84.081777-93.752889-219.591111-213.504-81.123555 80.440889c1.308444 1.137778 2.616889 2.275556 3.868444 3.584 18.602667 18.432 88.860444 91.875556 211.456 220.956445l1.308445 2.275555zM217.543111 500.337778l219.022222-226.702222 32.824889 31.516444-252.529778 262.826667-4.323555-4.892445L29.297778 357.262222 350.890667 37.432889 543.971556 226.986667l-31.857778 32.483555-160.995556-157.980444-259.185778 257.706666 125.610667 141.198223z m169.244445 73.443555a75.320889 75.320889 0 0 1-5.859556 105.870223l-51.2 46.250666-2.104889 1.820445a73.102222 73.102222 0 0 1-102.968889-9.216 76.970667 76.970667 0 0 1 7.623111-106.609778l48.981334-44.088889a74.581333 74.581333 0 0 1 105.528889 5.973333z m-124.074667 71.964445a31.459556 31.459556 0 0 0-3.128889 43.576889 27.591111 27.591111 0 0 0 38.855111 3.470222l0.796445-0.682667 51.2-46.250666a29.809778 29.809778 0 0 0 2.275555-41.870223 29.013333 29.013333 0 0 0-40.846222-2.446222l-49.152 44.202667z m212.593778 3.868444a75.320889 75.320889 0 0 1-5.859556 105.870222l-51.2 46.250667-2.104889 1.820445a73.102222 73.102222 0 0 1-102.968889-9.159112 76.970667 76.970667 0 0 1 7.566223-106.666666l49.038222-44.032a74.581333 74.581333 0 0 1 105.528889 5.916444z m-124.131556 71.964445a31.459556 31.459556 0 0 0-3.072 43.633777 27.591111 27.591111 0 0 0 38.855111 3.413334l0.796445-0.682667 51.2-46.193778a29.809778 29.809778 0 0 0 2.275555-41.927111 29.013333 29.013333 0 0 0-40.903111-2.446222l-49.152 44.202667z m187.335111 3.925333a75.320889 75.320889 0 0 1-5.859555 105.813333l-51.2 46.250667-2.104889 1.877333a73.102222 73.102222 0 0 1-102.968889-9.216 76.970667 76.970667 0 0 1 7.623111-106.609777l48.924444-44.088889a74.581333 74.581333 0 0 1 105.585778 5.973333z m-124.074666 71.907556a31.459556 31.459556 0 0 0-3.128889 43.633777 27.591111 27.591111 0 0 0 38.855111 3.413334l0.796444-0.625778 51.2-46.250667a29.809778 29.809778 0 0 0 2.275556-41.870222 29.013333 29.013333 0 0 0-40.903111-2.446222l-49.095111 44.145778z m199.907555 3.982222a75.320889 75.320889 0 0 1-5.859555 105.813333l-51.2 46.250667-2.104889 1.820444a73.102222 73.102222 0 0 1-102.968889-9.216 76.970667 76.970667 0 0 1 7.623111-106.609778l48.981333-44.088888a74.581333 74.581333 0 0 1 105.528889 5.973333zM490.268444 873.244444a31.459556 31.459556 0 0 0-3.128888 43.576889 27.591111 27.591111 0 0 0 38.855111 3.470223l0.796444-0.682667 51.2-46.250667a29.809778 29.809778 0 0 0 2.275556-41.870222 29.013333 29.013333 0 0 0-40.846223-2.446222l-49.152 44.202666z" p-id="5429"></path></svg>